<?xml version='1.0' encoding='utf-8'?>
<!-- Generator: imaengine 6.0   -->
<svg xmlns:xlink="http://www.w3.org/1999/xlink" xmlns="http://www.w3.org/2000/svg" viewBox="0,0,1008,1344" style="enable-background:new 0 0 1008 1344;" version="1.1">
<defs/>
<g id="layer0">
<path d="M0,0L1008,0L1008,1344L0,1344L0,0Z" fill="#FFFFFF"/>
</g>
<g id="layer1">
<path d="M692,1344C706.827,1340.73 746.944,1352.72 738,1333C742.46,1330.78 745.756,1334.07 745,1340C741.129,1344.41 762.224,1321.67 754,1324C742.636,1333.76 740.697,1329.4 721,1334C715.74,1337.49 714.533,1336.29 720,1333C715.644,1328.15 692.174,1325.43 719,1329C697.868,1324.13 695.673,1313.4 699,1308C708.425,1291.96 690.352,1279.8 677,1289C673.583,1296.37 682.113,1284.34 682,1292C682.484,1295.52 685.801,1296.2 686,1300C679.328,1313.97 682.593,1286.79 676,1301C676.421,1296.44 669.274,1294.85 672,1291C678.754,1275.17 660.413,1280.13 672,1274C656.378,1289.97 646.716,1257.6 648,1255C628.266,1260.48 636.482,1268.03 620,1264C629.567,1254.31 585.889,1251.41 605,1242C607.682,1243.17 618.672,1244.42 611,1242C588.081,1242.9 600.067,1239.84 602,1238C596.649,1239.21 599.974,1227.15 594,1232C590.195,1239.49 584.811,1218.32 581,1228C576.898,1214.39 578.866,1189.45 576,1178C574.958,1167.61 570.124,1142.79 570,1167C572.34,1183.55 572.685,1194.11 574,1216C573.086,1222.25 575.543,1225.12 575,1231C587.273,1251.52 569.083,1234.03 569,1224C554.436,1226.1 563.063,1201.03 558,1184C555.308,1166.39 553.849,1146.24 551,1130C552.183,1129.88 549.607,1096.09 549,1085C545.715,1075.15 541.566,1037.73 545,1040C547.058,1021.76 551.799,1004.88 558,992C558.563,987.231 562.931,986.264 565,983C590.737,974.063 546.815,982.643 571,974C577.55,975.458 582.467,970.543 573,972C562.763,966.878 599.441,958.39 579,959C576.185,961.518 570.355,961.022 565,961C569.419,964.968 556.628,977.75 562,959C586.874,957.738 599.74,952.002 582,972C576.34,990.478 580.826,1004.9 575,1022C580.965,1034.51 546.92,1041.68 565,1053C558.685,1037.9 594.26,1043.49 600,1033C612.858,1023.24 619.308,1012.49 623,1001C626.128,998.795 626.966,994.299 629,991C642.264,976.833 613.163,1012.31 627,1000C631.273,999.538 631.662,992.892 634,992C649.133,973.465 638.257,987.378 638,991C659.166,979.896 672.738,995.905 669,1009C667.283,1012.13 670.624,1012.97 675,1015C699.98,1020.35 674.137,1016.07 691,1012C690.906,1009.15 688.5,999.421 687,1004C688.968,1022.58 673.878,984.842 688,1000C692.164,998.483 696.457,995.448 689,997C693.159,997.1 696.764,967.048 699,978C705.009,983.648 695.616,971.589 701,972C694.395,957.81 722.44,976.496 716,960C738.212,941.334 714.909,960.768 729,968C708.894,956.669 730.526,980.603 734,980C748.248,993.387 728.176,953.302 737,954C735.457,950.451 732.37,943.705 737,950C740.857,943.614 749.903,930.52 750,922C765.675,932.517 769.626,895.921 747,900C733.182,894.655 711.038,892.163 693,895C657.268,900.463 686.172,901.321 705,898C727.127,896.482 741.619,903.812 754,908C775.694,937.802 733.219,889.96 750,913C737.006,907.899 714.895,901.879 699,907C680.341,907.076 666.493,916.742 650,916C653.123,921.627 652.5,922.253 649,917C655.288,932.409 636.36,920.364 625,926C621.806,925.582 611.445,928.617 618,929C640.782,929.69 601.085,931.918 605,935C604.764,954.464 579.867,959.781 600,943C607.671,937.741 593.265,937.326 606,926C608.283,922.951 607.916,917.249 611,915C622.354,893.411 601.349,940.824 614,919C613.534,913.442 620.728,910.803 617,918C614.468,919.91 635.227,909.481 641,907C647.554,906.47 647.107,902.362 642,904C616.924,902.235 674.332,898.403 649,898C626.592,889.756 639.02,913.909 625,911C626.13,906.449 631.991,904.982 624,906C613.555,913.093 628.287,890.649 627,884C629.552,866.254 642.432,857.516 648,844C662.639,829.905 634.491,864.176 642,871C632.702,869.375 637.037,874.867 642,875C674.224,869.614 633.753,870.366 650,868C635.821,859.807 662.252,845.578 661,832C666.607,817.309 676.76,805.844 678,788C679.733,775.385 687.163,743.744 681,744C679.061,749.617 678.979,735.86 677,737C675.521,734.456 678.697,776.108 675,758C674.11,742.409 672.816,712.387 684,736C695.989,731.957 702.896,756.683 707,768C711.012,784.286 719.619,797.297 723,813C729.423,826.875 734.923,842.992 737,860C746.91,894.097 740.596,850.637 737,841C734.948,822.754 726.701,809.383 723,794C719.689,783.73 707.335,756.076 712,756C718.686,769.612 722.635,787.281 728,801C735.473,813.824 738.678,832.238 743,847C745.064,865.234 751.268,880.648 757,894C764.805,914.691 770.302,925.073 763,895C756.118,881.584 750.064,866.021 747,850C747.401,835.773 734.082,809.532 739,809C740.341,810.272 742.124,823.141 742,814C728.327,793.848 762.006,797.362 754,795C744.082,796.005 749.622,791.718 755,792C774.247,792.271 769.568,784.507 751,787C728.171,789.995 713.678,774.794 746,784C764.631,777.707 779.87,790.116 792,795C804.102,803.196 821.781,807.134 842,806C864.9,808.921 873.126,806.501 894,807C910.503,810.795 929.106,813.81 942,820C954.332,827.966 966.223,837.692 975,848C985.719,854.575 999.294,870.548 1008,870C997.703,859.999 983.977,852.107 975,842C964.62,832.083 953.714,821.37 941,815C925.709,809.994 909.002,805.083 893,802C874.114,800.588 856.856,796.228 844,790C829.436,784.266 813.03,779.054 797,776C773.87,778.832 769.767,761.317 751,761C727.392,764.31 715.042,755.042 703,748C698.196,732.506 677.049,732.035 676,714C675.231,709.436 673.274,706.059 671,703C666.33,698.866 659.265,667.924 660,689C658.995,691.533 655.332,698.308 658,700C659.206,705.206 656.532,706.533 656,710C651.286,700.187 650.489,725.579 649,712C652.39,681.606 646.104,703.357 646,724C642.693,744.752 651.818,765.614 645,780C644.978,785.07 644.482,794.407 647,786C648.213,790.797 652.57,827.576 652,798C651.074,793.594 650.496,788.836 650,784C653.317,788.666 650.683,775.336 654,780C660.328,797.009 652.322,759.997 658,781C662.581,795.338 656.242,817.304 650,828C644.177,842.475 635.732,855.648 628,867C624.004,883.302 616.542,897.458 609,909C604.368,924.665 593.969,935.885 583,944C569.852,950.015 546.665,951.464 529,949C509.025,948.677 497.461,938.623 487,930C475.731,920.971 460.944,914.14 450,906C441.301,894.401 428.678,885.406 424,871C421.855,867.812 424.184,860.148 422,857C420.291,835.82 421.329,831.08 424,828C421.954,809.748 419.653,790.431 417,774C414.71,755.992 410.99,738.094 405,725C397.568,726.217 392.826,749.987 392,766C382.101,785.091 399.235,804.476 398,789C396.874,787.103 396.826,777.319 399,784C414.721,799.109 385.592,795.47 404,804C408.124,805.209 405.876,812.791 410,814C410.643,815.103 411.357,825.086 412,820C416.125,806.945 411.916,838.834 416,839C417.481,857.817 418.921,877.995 429,887C435.76,902.892 413.794,871.216 408,869C396.543,860.159 384.277,850.807 372,844C362.16,837.625 352.862,830.374 338,823C309.901,806.853 342.741,816.628 350,826C363.287,833.011 378.657,839.259 389,848C403.902,862.773 381.865,831.397 373,831C356.37,827.333 344.688,817.396 333,810C329.103,808.564 326.308,806.025 322,805C298.27,813.504 334.602,820.226 314,822C293.398,816.146 318.137,797.778 325,792C325.563,787.231 329.931,786.264 332,783C351.578,771.247 325.05,779.205 317,773C300.3,776.597 293.547,791.463 275,792C267.949,795.063 220.569,801.514 253,800C259.346,811.371 284.655,817.247 296,806C296.993,791.938 303.662,767.739 322,781C322.959,791.33 301.865,799.782 297,811C281.716,819.973 258.594,812.868 248,807C240.464,803.163 191.701,811.183 220,812C240.655,811.643 246.925,826.991 260,833C279.683,848.073 254.303,854.259 248,836C239.351,824.351 227.064,815.021 209,814C198.993,812.358 157.71,799.627 183,813C198.399,817.898 217.766,820.15 230,827C242.195,832.099 246.994,856.848 257,855C285.046,830.603 254.011,874.925 269,856C290.681,849.582 265.354,822.572 268,826C311.158,826.647 269.337,822.738 255,822C240.884,808.07 282.253,827.88 292,818C293.888,821.685 284.023,830.835 292,839C295.15,833.884 296.484,842.542 296,847C302.623,860.537 293.896,834.964 299,827C309.896,806.032 315.285,843.733 310,857C309.933,876.13 312.069,882.964 312,904C312.931,921.722 313.584,950.867 311,948C311.677,950.803 313.062,953.598 312,959C319.13,977.17 326.59,949.962 325,971C326.994,978.627 328.371,1006.95 338,999C336.489,992.44 347.444,994.555 339,992C331.139,990.319 343.99,980.674 340,978C334.077,974.872 340.819,974.034 344,972C330.824,979.618 322.694,969.1 330,961C329.432,988.699 338.934,951.173 352,952C356.529,955.402 357.812,947.949 359,945C363.102,929.415 346.153,947.367 360,929C361.559,921.107 364.831,924.812 379,911C376.694,909.82 374.475,916.338 370,916C360.773,921.633 375.466,898.13 363,892C358.301,890.544 370.28,889.13 365,884C355.563,872.486 352.126,871.47 366,874C363.638,850.808 377.82,882.784 379,894C378.372,905.085 399.778,939.757 385,917C384.005,934.12 388.488,939.425 389,949C386.145,950.969 383.558,940.322 385,951C372.276,948.078 396.971,958.491 390,963C392.594,960.261 393.565,955.897 397,954C396.258,972.041 405.764,980.104 401,979C405.131,980.202 407.799,982.869 409,987C402.072,989.866 410.189,998.91 414,1001C415.002,993.386 425.565,1026.16 421,1037C424.392,1036.78 429.248,1068.81 438,1057C440.503,1051.42 444.952,1059.11 449,1058C429.851,1056.33 454.015,1071.79 442,1076C440.121,1066.96 438.915,1077.99 441,1081C440.406,1106.57 440.929,1094.75 452,1089C466.306,1054.09 436.466,1113.94 459,1097C460.527,1065.97 456.097,1103.75 467,1106C466.079,1107.33 458.389,1108.21 466,1111C470.61,1119.28 462.728,1120.69 469,1125C464.733,1128.97 461.937,1125.44 458,1124C461.937,1144.7 461.976,1122.13 476,1129C485.638,1118.34 475.856,1086.94 486,1078C485.551,1074.31 480.815,1070.31 484,1066C491.689,1041.77 478.587,1076.73 469,1066C464.442,1061.81 467.347,1058.9 469,1066C478.145,1067.65 487.112,1051.35 478,1042C473.678,1031.41 466.659,992.97 464,1025C469.105,1004.16 457.29,992.553 448,983C437.895,972.807 432.935,956.149 426,944C423.799,940.869 423.538,935.795 422,932C409.904,913.505 417.212,922.764 431,916C424.145,918.352 425.21,896.063 410,890C402.488,877.214 387.973,870.111 377,862C368.666,854.305 343.778,846.146 346,840C360.026,846.271 371.933,855.983 384,863C396.196,871.102 408.74,880.176 418,890C428.724,899.573 436.869,913.047 447,922C456.422,932.876 467.047,943.869 473,957C479.713,970.585 488.2,983.716 492,999C497.684,1013.61 504.675,1028.24 508,1044C515.619,1062.82 506.067,1081.66 531,1074C553.459,1085.55 515.046,1068.79 505,1079C492.69,1088.1 497.667,1118.1 510,1121C514.204,1122.13 517.132,1124.54 522,1125C542.747,1135.39 506.706,1117.24 521,1137C522.979,1155.02 522.849,1175.15 525,1193C535.957,1219.55 510.509,1179.38 511,1180C507.79,1177.88 507.58,1172.75 504,1171C496.889,1154.34 495.647,1162.43 493,1167C492.362,1147.8 449.488,1162.71 482,1153C483.485,1151.22 476.66,1151.72 474,1149C475.408,1148.68 479.027,1138.08 459,1143C426.358,1159.81 478.751,1131.22 454,1139C444.718,1136.47 443.597,1174.06 443,1147C441.399,1137.57 441.27,1146.01 440,1150C436.484,1149.98 437.515,1157.64 437,1155C436.438,1143.23 432.065,1149.19 423,1146C422.741,1147.39 431.717,1147.15 429,1154C416.258,1142.68 426.689,1158.04 415,1157C412.16,1159.82 408.496,1157.41 413,1153C410.984,1150.91 408.914,1166.1 398,1153C391.27,1154.4 389.726,1150.61 387,1148C381.909,1162.79 377.361,1152.93 376,1142C371.56,1139.87 371.435,1137.07 371,1133C370.437,1129.56 372.111,1123.89 370,1122C354.066,1111.72 373.324,1126.05 361,1120C372.366,1097.5 339.201,1119.12 355,1127C339.126,1130.23 333.457,1126.48 344,1145C345.607,1147.37 343.854,1159.11 348,1153C351.317,1156.54 348.683,1146.56 352,1147C349.517,1163.04 355.441,1149.5 357,1155C351.036,1171.89 332.726,1153.66 319,1160C311.987,1163.71 314.73,1156.33 311,1159C307.431,1154.74 289.849,1168.29 302,1153C291.64,1156.89 279.984,1151.22 280,1144C280.807,1139.18 274.559,1134.44 274,1142C274.709,1149.52 255.29,1132.62 266,1133C300.081,1139.32 261.268,1127.14 253,1123C243.452,1124.38 248.993,1120.09 254,1120C275.188,1128.1 245.633,1094.66 246,1119C247.611,1123.39 237.251,1126.42 239,1122C243.454,1107.19 238.899,1094.36 248,1108C247.553,1075.43 216.415,1108.54 234,1103C238.931,1103.22 238.385,1100.53 239,1108C245.255,1130.81 224.926,1099.32 223,1119C223.582,1125.17 220.869,1120.47 216,1124C220.33,1128.51 221.143,1135.98 205,1136C196.625,1126.37 216.104,1122.68 208,1118C202.914,1114.33 202.704,1118.29 201,1123C199.254,1125.25 195.936,1125.94 197,1131C196.323,1146.47 194.115,1116.58 187,1134C177.616,1133.02 184.602,1138.01 181,1140C170.109,1162.69 186.744,1127.43 168,1140C162.384,1134.21 166.016,1148.46 163,1143C160.437,1141.56 160.111,1137.89 156,1138C161.443,1148.69 147.571,1135.87 149,1142C151.539,1139.16 151.54,1132.84 149,1130C140.305,1111.25 127.951,1146.44 132,1122C131.726,1117.18 128.511,1110.56 129,1121C129.194,1138.58 123.613,1100.74 126,1097C124.476,1078.23 124.773,1056.31 115,1047C108.254,1034.25 97.2949,1023.12 95,1009C86.3248,993.382 82.7707,986.879 74,973C70.9637,952.28 42.4217,954.208 55,977C62.2637,990.034 71.5673,1002.35 78,1015C86.5431,1026.75 95.0845,1039.83 102,1052C108.466,1065.83 119.452,1076.46 119,1096C109.557,1112.45 131.534,1140.62 113,1117C103.818,1102.78 70.3196,1107.96 96,1119C98.6466,1113.28 117.435,1152.61 107,1137C98.0678,1137.94 85.5696,1123.52 76,1115C74.5845,1113.48 69.2716,1106.65 72,1107C91.9468,1112.86 62.6961,1096.38 56,1106C53.257,1114.6 75.9199,1123.86 83,1132C87.8679,1132.46 90.7961,1134.87 95,1136C94.5939,1138.35 106.361,1152.86 93,1151C89.9499,1143.97 68.7826,1148.24 69,1150C54.421,1153.78 40.5688,1155.81 36,1164C30.1076,1177.67 -1.02183,1170.05 1,1188C17.9335,1184.94 30.8118,1177.81 46,1173C63.9338,1170.64 86.4056,1171.49 98,1164C102.406,1163.07 107.164,1162.5 112,1162C115.936,1162.73 119.969,1161.41 118,1164C102.824,1167.77 133.608,1165.87 135,1164C148.732,1158.31 174.493,1157.07 185,1163C183.84,1166.17 134.321,1159.19 148,1167C167.051,1168.25 185.226,1171.69 202,1174C222.642,1173.66 239.944,1177.97 260,1177C277.507,1172.55 299.416,1177.17 316,1178C336.448,1177.86 354.061,1183.26 372,1179C391.734,1179.56 412.32,1180.6 432,1180C451.333,1177.08 472.856,1180.19 488,1183C503.437,1187.86 512.256,1200.66 523,1209C528.619,1223.68 549.186,1224.73 557,1236C569.568,1243.73 580.518,1254.4 591,1263C601.638,1272.66 616.491,1279.43 628,1287C642.103,1293.19 652.008,1304.91 662,1314C670.249,1325.75 687.079,1328.92 692,1344ZM748,1344C752.593,1343.26 761.381,1346.71 759,1339C761.266,1320.9 765.967,1350.84 779,1344C756.818,1329.54 803.448,1352.87 781,1326C773.422,1320.1 778.126,1333.28 776,1329C768.545,1316.11 794.124,1332.56 790,1332C782.309,1348.81 825.193,1347.98 822,1338C817.645,1343.48 824.469,1345.39 830,1344C824.654,1334.25 850.866,1352.25 853,1340C867.644,1342.44 871.964,1335.61 882,1329C882.863,1329.33 883.573,1319.61 885,1319C880.665,1301.46 889.059,1324.08 885,1332C885.604,1327.87 889.972,1325.2 892,1324C904.172,1332.63 902.768,1313.74 907,1324C919.389,1320.59 948.378,1321.76 952,1332C932.013,1355.31 968.369,1328 949,1315C942.013,1298.56 929.68,1298.95 910,1300C905.578,1300.03 900.448,1305.44 903,1300C907.458,1294.61 887.155,1312.3 879,1307C882.501,1307.52 835.382,1318.87 851,1312C853.056,1309.11 845.915,1312.15 845,1313C840.685,1300.05 832.46,1335.76 829,1320C830.031,1311.05 848.484,1280.66 839,1290C830.966,1298.07 834.675,1329.36 814,1315C809.702,1309.2 810.953,1320.19 814,1321C817.274,1339.38 803.6,1298.08 806,1328C807.436,1333.23 804.531,1289.15 814,1294C819.279,1294.29 819.362,1295.18 818,1299C826.916,1325.98 824.017,1288.1 822,1290C820.795,1292.56 817.136,1289.7 818,1287C816.614,1277.19 825.348,1269.88 815,1273C813.942,1273.48 811.356,1274.29 811,1267C789.611,1252 815.068,1272.08 818,1257C819.313,1260.14 831.555,1258.44 824,1258C820.905,1258.22 819.19,1252.59 819,1253C833.967,1246.53 814.47,1246.04 815,1254C803.737,1271.77 792.787,1242.27 784,1259C778.91,1259.09 765.879,1271.93 758,1269C771.965,1267.8 781.993,1254.09 780,1252C779.59,1241.06 798.084,1238.2 817,1237C831.09,1235.21 849.42,1227.64 868,1234C883.144,1238.85 903.421,1238.58 914,1248C924.615,1256.95 938.352,1266.73 942,1279C933.755,1288.17 947.165,1308 955,1316C968.074,1329.81 942.395,1353.3 979,1344C983.735,1344 990.77,1344 994,1344C1024.94,1352.03 990.983,1320.14 1007,1334C1007.42,1318.68 1010.52,1283.24 1002,1288C998.707,1287.92 986.384,1288.55 992,1287C1011.59,1291.53 1008.91,1276.33 1008,1260C1018.69,1228.03 986.835,1247.43 997,1217C998.202,1213.47 1000.87,1209.1 1005,1210C995.534,1226.06 1020.75,1200.26 998,1204C994.854,1203.93 1003.2,1200.14 1005,1199C1009.02,1199.02 1008.06,1194.06 1008,1190C1011.43,1165.07 1000.67,1192.46 1004,1177C1013.31,1158.1 984.983,1136.75 997,1144C992.928,1139.34 1001.27,1124.63 1005,1110C1001.64,1125.08 990.182,1106.72 984,1115C989.986,1100.69 1005.89,1094.97 1008,1078C1007.62,1065.16 1010.96,1017.66 1001,1049C998.132,1059.1 987.615,1092.21 985,1069C985.705,1059.02 984.399,1007.56 987,1047C993.166,1049.84 986.482,1019.04 990,1007C997.332,1013.62 995.882,970.802 999,976C1004.23,961.977 999.724,935.533 1007,926C1007.91,919.27 1007.33,917.726 1005,915C1011.38,917.54 997.872,889.928 999,892C991.941,888.966 987.696,864.788 976,860C962.179,833.423 970.582,862.128 966,880C966.911,899.087 967.943,918.059 973,933C976.649,951.387 976.697,899.92 972,900C972.62,894.047 971.415,889.918 971,885C971.938,858.363 974.191,899.61 977,902C975.916,880.52 982.385,866.126 991,892C994.728,899.793 987.536,895.457 988,892C977.092,873.096 986.516,906.087 990,909C989.449,923.939 998.375,936.412 992,955C989,937.207 993.804,990.875 986,982C992.258,975.001 981.095,931.801 990,944C995.058,939.668 986.445,908.058 981,941C979.261,957.996 980.256,982.505 980,998C979.021,1019.28 981.78,1038.14 982,1057C982.075,1077.07 982.088,1097.09 976,1111C971.782,1122.29 948.057,1105.73 949,1092C938.211,1061.5 947.862,1102.66 950,1113C953.805,1129.49 958.937,1145.98 962,1162C965.577,1174.52 970.351,1208.07 949,1201C964.764,1201.23 964.689,1174.51 956,1165C951.784,1149.22 949.182,1131.82 944,1117C938.147,1105.93 943.384,1076.61 924,1080C924.31,1074.95 917.485,1074.74 916,1073C912.526,1087.4 916.477,1088.04 919,1091C947.167,1085.76 900.73,1110.51 931,1099C936.923,1093.86 928.602,1105.3 933,1106C941.788,1122.31 925.794,1106.79 916,1116C905,1106.85 888.219,1100.72 879,1094C863.295,1087.32 856.739,1078.7 842,1077C837.142,1076.05 831.888,1075.42 830,1078C816.496,1092.98 842.204,1069.31 839,1084C840.812,1091.55 838.227,1088.67 835,1091C829.291,1085.92 848.513,1103.24 845,1102C847.012,1082.78 857.556,1123.84 862,1108C864.584,1121.59 876.225,1114.2 889,1127C890.154,1130.58 896.98,1130.79 897,1134C885.128,1129.53 907.711,1145.63 907,1153C912.512,1152.22 916.962,1154.81 918,1157C904.046,1143.78 919.649,1147.9 926,1158C936.143,1168.15 955.54,1170.38 959,1186C961.172,1188.7 956.933,1194.9 955,1195C932.392,1197.51 943.148,1198.38 948,1213C949.406,1228.94 958.656,1246.64 957,1258C950.748,1244.25 944.158,1230.84 940,1215C942.586,1206.5 939.553,1214.55 937,1214C941.841,1223.89 924.477,1224.84 932,1228C928.983,1233.72 908.736,1216.94 895,1217C878.806,1214.82 860.273,1214.62 843,1211C832.124,1213.27 814.954,1213.39 796,1212C750.634,1214.29 805.987,1208.08 800,1209C784.48,1204.76 764.201,1213.16 759,1214C760.885,1212.35 768.159,1209.18 766,1208C753.417,1220.7 748.844,1186.18 747,1202C719.734,1192.44 769.342,1213.1 744,1213C741.685,1218.39 740.355,1207.59 738,1207C738.365,1203.65 733.374,1199.37 735,1206C734.089,1215.18 706.265,1205.72 722,1206C713.684,1210.36 696.822,1203.4 692,1188C687.044,1184.24 687.992,1183.48 687,1188C687.429,1205.35 681.158,1168.2 676,1172C667.204,1183.94 662.313,1152.96 649,1151C635.778,1150.25 638.121,1122.5 614,1129C591.293,1113.67 603.257,1155.05 614,1155C613.595,1158.88 618.015,1157.83 618,1162C628.536,1151.04 612.742,1166.62 629,1170C627.919,1175.82 630.953,1179.82 632,1182C623.242,1170.94 621.32,1188.66 632,1191C632.709,1197.45 632.662,1197.92 633,1204C650.256,1206.89 642.015,1216.75 646,1224C644.837,1213.64 648.499,1221.51 648,1225C637.729,1241.93 662.21,1219.79 658,1240C663.395,1245.58 653.112,1238.42 657,1244C650.16,1227.39 638.423,1267.67 651,1249C651.171,1241.49 654.829,1243.19 655,1248C663.935,1239.6 652.665,1267.8 668,1254C683.606,1234.51 681.335,1255.37 683,1268C695.089,1306.16 680.528,1247.67 692,1265C680.486,1283.36 715.138,1252.7 723,1270C721.224,1269.7 711.936,1269.96 716,1274C724.649,1270.73 725.156,1300.86 716,1277C697.609,1268.9 711.672,1291.43 720,1294C715.553,1290.08 713.642,1298.61 714,1301C728.975,1288.25 716.314,1304.39 717,1313C723.911,1312.59 731.432,1289.82 727,1279C716.344,1267.39 760.314,1287.53 748,1278C746.018,1283.39 779.513,1278.57 761,1290C763.309,1299.96 741.086,1312.45 743,1292C746.882,1292.57 755.461,1294.53 747,1295C741.294,1293.29 743.324,1295.9 747,1297C761.382,1296.58 743.225,1280.39 757,1290C761.505,1279.17 710.279,1276.62 746,1285C747.898,1295.52 720.084,1288.97 727,1311C752.947,1286.41 715.907,1326.43 730,1318C742.527,1292.23 742.908,1326.95 759,1315C756.747,1312.38 790.557,1302.65 779,1293C787.996,1293.32 767.577,1258.33 790,1279C783.391,1293.97 812.112,1288.86 809,1280C801.697,1284.38 801.423,1320.89 798,1293C775.167,1283.68 802.511,1321.51 798,1315C799.663,1312.53 800.501,1304.63 804,1307C801.159,1309.62 805.507,1312.62 805,1316C803.029,1332.77 797.501,1323.67 796,1328C798.056,1329.62 790.915,1322.92 790,1323C768.743,1320.22 801.621,1301.25 787,1307C783.385,1308.12 779.645,1311.42 779,1314C773.766,1324.66 761.804,1332.98 765,1331C750.448,1321.86 760.48,1347 748,1344ZM847,1328C864.456,1323.77 863.932,1331.04 848,1329C834.773,1329.91 836.765,1314.18 847,1328ZM740,1325C751.789,1325.89 750.487,1322.58 743,1320C735.99,1314.33 735.039,1319.9 740,1325ZM770,1319C774.597,1311.62 792.263,1304.07 774,1306C756.26,1320.45 774.158,1311.49 770,1319ZM765,1303C766.938,1302.97 759.484,1305.51 758,1308C738.768,1321.12 757.992,1305.81 762,1298C764.041,1295.82 769.794,1295.15 770,1300C782.963,1291.73 764.987,1308.87 765,1303ZM814,1303C821.886,1297.65 813.991,1296.11 809,1294C804.056,1302.99 818.013,1300.01 814,1303ZM709,1301C712.634,1299.82 708.738,1288.9 710,1285C707.018,1289.55 704.495,1298.7 709,1301ZM1003,1283C1000.41,1289.71 973.9,1279.29 983,1277C987.432,1272.4 995.254,1283.26 1003,1283ZM804,1279C817.705,1276.92 791.338,1284.74 795,1275C800.091,1267.39 813.634,1274.44 804,1279ZM800,1269C792.737,1275.79 766.886,1268.05 789,1263C808.052,1253.64 786.763,1262.74 800,1269ZM604,1266C599.038,1262.48 584.896,1256.67 582,1246C585.343,1251.14 597.299,1259.13 604,1266ZM805,1256C813.265,1258.47 805.047,1243.28 811,1246C806.96,1235.3 797.318,1251.97 805,1256ZM853,1251C877.331,1247.1 865.557,1250.11 852,1246C840.159,1232.88 837.879,1248.25 853,1251ZM615,1204C632.517,1205.4 612.6,1193.89 623,1196C619.701,1183.17 615.427,1200.7 615,1204ZM807,1193C818.75,1191.79 872.814,1190.5 839,1188C822.276,1198.79 783.058,1175.77 807,1193ZM809,1188C815.825,1188.83 819.175,1186.17 826,1187C851.586,1191.8 831.517,1166.7 830,1161C830.833,1166.17 833.167,1169.83 834,1175C850.348,1194.21 800.632,1179.53 809,1188ZM814,1181C827.321,1183.05 806.415,1173.79 810,1165C805.675,1153.95 811.497,1178.3 814,1181ZM824,1179C828.335,1180.96 819.452,1161.5 813,1160C809.467,1160.07 822.761,1169.78 824,1179ZM800,1174C802.319,1161 790.079,1142.28 794,1136C813.72,1132.01 821.276,1145.35 823,1153C825.006,1133 808.202,1131.8 789,1133C790.134,1145.86 797.454,1159.73 800,1174ZM546,1173C552.759,1182.44 535.983,1195.17 542,1182C546.18,1174.92 536.444,1160.47 546,1173ZM389,1172C402.916,1172.85 415.767,1169.26 429,1172C438.81,1173.23 465.877,1169.15 458,1174C445.867,1175.87 430.683,1174.68 417,1175C402.45,1176.02 389.952,1173.29 377,1174C364.323,1175.02 350.616,1177.15 339,1174C330.945,1174.76 297.364,1171.25 322,1170C337.484,1169.23 330.544,1164.99 349,1171C362.07,1171.46 378.508,1170.25 389,1172ZM252,1171C269.827,1169.62 268.542,1158.52 294,1167C297.188,1165.45 304.852,1166.08 308,1166C333.916,1164.21 327.626,1169.22 306,1168C288.139,1170.14 269.305,1171.31 251,1173C245.351,1173.91 240.773,1171.46 237,1172C210.639,1171.15 247.674,1164.25 252,1171ZM804,1166C803.548,1157.15 798.837,1144.77 795,1138C797.357,1144.95 800.53,1158.87 804,1166ZM73,1162C90.5495,1157.44 95.4581,1162.34 76,1165C61.8885,1164.22 49.2886,1164.96 41,1170C22.4312,1174.57 47.9282,1163.06 53,1162C56.7062,1157.69 84.5798,1154.25 73,1162ZM545,1161C544.656,1170.27 534.893,1168.87 542,1158C539.491,1143.85 546.373,1149.33 545,1161ZM711,1157C722.682,1154.41 706.282,1144.55 708,1151C707.22,1138.15 701.481,1156.67 711,1157ZM827,1156C830.271,1132.46 814.739,1122.92 786,1129C806.72,1128.55 830.675,1129.67 827,1156ZM698,1153C701.73,1149.24 704.485,1139.46 697,1140C687.695,1136.95 693.601,1152.46 698,1153ZM402,1149C412.684,1145.72 397.253,1136.17 394,1142C383.295,1150.66 404.028,1140.47 402,1149ZM255,1148C252.695,1152.4 255.615,1118.67 256,1132C267.527,1129.56 259.686,1133.06 255,1148ZM471,1140C476.368,1140.72 479.706,1137.44 474,1131C465.97,1127.65 464.049,1137.92 471,1140ZM844,1133C846.518,1127.61 841.866,1130.78 838,1126C825.903,1129.22 835.992,1130.58 844,1133ZM670,1132C673.089,1132.19 678.966,1128.29 679,1130C701.315,1128.77 677.441,1129.03 674,1124C663.536,1116.84 667.56,1133.33 661,1117C660.669,1113.07 651.832,1115.12 655,1112C667.15,1105.17 640.898,1111.47 639,1115C645.821,1123.64 662.143,1127.46 670,1132ZM336,1127C352.876,1133.3 343.55,1106.23 344,1106C336.258,1115.24 344.74,1098.14 348,1102C341.623,1094.63 347.636,1094.86 335,1089C330.165,1082.07 325.384,1073.67 320,1074C319.675,1075.62 300.754,1092.92 306,1081C310.107,1083.39 316.946,1070.38 320,1071C313.62,1063.67 305.017,1067.69 303,1056C297.395,1055.84 286.681,1051.91 281,1046C283.596,1049.4 305.087,1055.11 297,1047C290.564,1043.72 277.571,1034.47 288,1032C289.201,1026.65 276.486,1024 278,1016C276.167,1007.49 271.158,993.858 274,1016C262.43,1028.48 299.017,1028 274,1027C266.761,1038.76 260.281,1024.66 269,1028C270.349,1019.97 277.126,1006.02 269,1000C266.09,990.911 257.613,987.386 253,980C247.472,966.301 244.984,991.684 244,992C237.621,995.079 257.227,1005.71 254,1006C244.897,1002.78 238.613,995.328 250,1008C259.107,1014.39 270.248,1009.57 260,1018C259.164,1021.02 262.784,1025.41 265,1034C280.029,1027.36 273.348,1035.29 273,1038C258.598,1034.13 273.099,1052.62 273,1058C275.936,1075.78 273.138,1042.31 281,1052C274.489,1063.54 285.278,1059.5 293,1067C286.203,1061.05 285.128,1070.65 292,1080C296.806,1101.55 298.518,1068.18 301,1089C301.793,1099.96 313.782,1102.48 305,1087C311.786,1088.45 306.671,1106.18 317,1108C329.18,1120.72 319.031,1097.37 329,1114C331.953,1131.65 344.374,1099.97 339,1116C335.291,1124.01 351.952,1126.59 336,1127ZM825,1127C830.014,1126.77 829.153,1120.96 826,1120C843.641,1126.09 832.124,1114.81 819,1116C847.715,1119.24 808.203,1108.23 807,1112C811.941,1111.73 814.976,1113.36 817,1116C792.217,1108.96 828.56,1120.25 808,1124C784.202,1134.02 832.32,1115.51 825,1127ZM324,1126C330.256,1115.74 327.316,1115.94 321,1112C306.059,1112.89 326.383,1119.88 324,1126ZM7,1123C16.8117,1124.18 0.858922,1114.85 13,1119C6.25377,1112.26 -8.20435,1121.34 7,1123ZM524,1117C534.671,1116.47 541.602,1106.87 539,1097C538.464,1085.36 529.014,1080.85 517,1082C511.218,1099.06 505.818,1078.2 507,1097C506.6,1109.58 516.136,1114 524,1117ZM624,1114C644.355,1120.97 654.756,1100.55 633,1095C616.271,1101.43 617.163,1080.8 593,1085C593.283,1078.73 584.845,1091.14 589,1081C594.201,1087.55 555.847,1078.88 582,1090C590.717,1099.55 618.636,1101.11 624,1114ZM445,1108C450.122,1107.26 456.196,1097.15 446,1097C445.374,1094.08 437.166,1102.26 445,1108ZM719,1108C722.737,1108.75 721.231,1104 724,1099C733.684,1106.5 716.63,1082.04 709,1090C710.732,1092.76 717.072,1091.04 720,1095C720.09,1098.17 720.299,1108.58 719,1103C715.21,1087.29 706.24,1104.81 719,1108ZM517,1103C519.625,1115.32 506.376,1096.28 514,1092C520.885,1079.97 515.083,1093.71 517,1103ZM959,1103C974.174,1104.82 969.255,1083.69 972,1077C967.159,1068.05 962.24,1067.36 967,1054C965.886,1051.04 964.253,1046.3 963,1045C961.887,1039.27 965.553,1040.86 966,1044C968.581,1060.14 969.898,1030.43 964,1038C980.28,1032.02 947.27,1009.88 967,1015C974.998,1005.83 961.524,988.908 965,974C960.879,963.751 955.609,945.041 955,940C950.038,925.58 951.058,913.46 949,906C945.872,885.126 949.83,886.457 948,881C952.702,878.465 941.883,878.813 949,877C949.27,859.647 949.031,868.311 943,865C940.697,879.06 938.81,885.592 934,900C926.38,909.739 933.175,926.655 932,943C932.677,958.988 932.74,975.595 934,991C935.698,1006.22 938.279,1022.05 941,1035C945.676,1046.99 945.844,1063.49 950,1076C951.842,1093.94 962.089,1104.86 954,1080C951.609,1059.85 961.032,1097.31 959,1103ZM103,1102C114.077,1095.11 86.68,1086.56 77,1081C58.2548,1082.92 99.3486,1095.22 103,1102ZM543,1096C546.744,1110.49 536.583,1118.55 526,1120C512.948,1119.05 505.079,1112.92 503,1101C499.711,1086.96 510.218,1079.25 521,1078C532.986,1076.51 540.698,1085.23 543,1096ZM196,1093C196.759,1090.16 207.849,1088.52 202,1085C197.353,1084.72 190.792,1089.4 196,1093ZM227,1093C236.895,1087 250.042,1093.4 234,1085C218.938,1081.37 233.412,1088.51 227,1093ZM717,1084C729.97,1080.33 721.582,1072.76 718,1076C713.715,1056.45 709.946,1081.86 717,1084ZM100,1079C104.059,1077.57 95.3162,1059.88 92,1056C87.2397,1047.9 83.7841,1036.77 77,1032C73.4985,1022.65 66.0278,1015.53 61,1009C55.8302,1001.5 49.3905,995.275 43,989C44.2528,990.047 46.8854,1004.94 54,1009C56.5005,1019.36 67.788,1022.66 69,1033C73.1461,1041.71 80.6334,1048.81 83,1058C88.7663,1064.9 94.4275,1071.91 100,1079ZM928,1078C944.265,1065.24 905.76,1040.86 915,1061C918.293,1055.74 921.542,1062.48 923,1065C900.612,1071.48 933.681,1061.83 928,1078ZM709,1072C711.15,1058.89 726.871,1078.88 722,1059C718.383,1051.16 711.583,1064.76 709,1072ZM535,1069C513.428,1080.28 520.325,1050.71 514,1043C514.934,1026.38 525.88,1010.26 518,1037C514.324,1041.29 523.953,1042.13 521,1037C526.169,1026.48 516.237,1061.29 527,1058C549.356,1060.07 522.243,1020.88 530,1047C533.899,1071.06 515.72,1030.66 529,1033C511.788,1026.24 538.346,1018.34 537,1037C519.451,1022.56 547.924,1045.81 537,1057C528.361,1063.42 509.643,1058.92 535,1069ZM940,1069C941.722,1051.13 933.563,1032.18 931,1015C922.37,1000.31 928.792,977.328 926,956C922.337,937.666 918.168,919.83 914,902C903.52,903.722 912.541,841.775 906,872C905.679,871.376 903.149,858.498 903,870C910.223,879.301 884.231,880.016 886,877C875.203,888.504 882.392,889.325 881,904C879.141,911.222 882.663,914.156 882,906C893.138,909.565 870.425,926.438 884,929C877.089,925.631 878.738,925.66 880,932C880.447,935.632 884.692,937.757 885,940C886.319,964.261 887.472,935.328 891,934C886.757,948.822 897.629,972.703 906,974C900.381,973.78 897.432,978.515 896,981C905.947,974.067 905.743,997.082 907,999C928.495,996.205 895.025,1009.88 901,1011C887.084,1004.45 921.486,1026.98 918,1010C918.521,1043.66 922.468,994.882 919,990C916.719,991.74 922.769,938.986 924,969C926.682,971.718 923.319,982.763 926,984C920.796,991.186 924.015,1002.22 929,1016C933.572,1032.16 938.657,1052.55 940,1069ZM701,1061C704.647,1054.32 692.866,1056.38 713,1054C707.286,1048.88 682.804,1056.01 701,1061ZM121,1048C125.334,1037.88 124.234,1021.55 119,1015C111.881,1009.74 117.409,988.371 108,988C100.923,993.032 108.015,1012.76 113,1016C117.38,1024.95 117.398,1038.27 121,1048ZM458,1047C479.405,1047.64 437.435,1050.93 439,1041C424.702,1029.72 453.549,1046.08 458,1047ZM908,1044C926.044,1037.63 896.559,1025.01 920,1035C925.26,1049.95 925.415,1028.23 911,1022C907.877,1021.63 909.928,1011.51 906,1015C889.557,1025.34 907.711,1025.41 901,1037C909.312,1057.79 901.517,1011.88 908,1044ZM676,1041C678.789,1037.97 672.878,1029.94 680,1032C683.925,1054.22 691.408,1023.11 694,1041C684.137,1035 695.354,1020.42 682,1020C644.07,1027.57 691.502,1017.71 686,1028C688.058,1049.72 670.83,1008.89 676,1041ZM445,1038C442.858,1038.31 429.774,1034.16 428,1030C428.735,1031.1 444.598,1032.47 445,1038ZM697,1033C704.702,1027.53 705.197,1034.17 706,1018C715.05,1000.93 690.672,1005.27 701,995C699.172,979.97 693.826,1023.59 688,1000C692.038,1009.29 699.561,1029.29 697,1033ZM124,1017C123.412,1006.97 124.658,993.672 124,983C125.253,972.076 125.149,958.015 125,947C124.214,934.037 128.565,924.431 129,914C130.2,903.023 132.21,891.076 134,882C135.902,871.725 137.28,859.146 139,850C137.23,838.653 142.124,821.736 138,818C132.648,824.293 133.748,829.323 135,844C132.521,850.002 125.732,839.752 128,832C127.749,819.084 135.859,814.524 142,808C148.927,803.714 161.341,799.126 171,802C180.593,801 199.587,812.491 188,800C181.328,799.316 166.153,794.53 157,798C146.403,799.58 138.707,805.841 133,811C126.35,816.527 121.218,825.352 122,837C122.356,854.282 108.694,841.809 100,842C86.9524,841.13 83.7237,851.858 78,857C73.7273,865.393 72.5486,876.883 67,884C61.6257,890.803 53.0364,896.17 47,901C41.5217,907.699 31.4436,911.578 25,916C17.1572,920.334 8.83085,925.965 5,933C-6.17993,947.713 6.9604,943.218 9,932C14.2285,925.051 24.5711,921.437 31,917C39.1762,912.999 47.5905,907.457 53,902C59.1649,895.988 69.4693,892.335 72,884C76.1931,875.528 77.1415,863.807 83,857C87.5428,849.602 96.4843,842.713 107,848C106.063,847.227 93.66,858.212 98,870C95.7685,879.587 100.369,894.948 97,904C95.3636,917.813 102.973,924.161 100,938C102.193,947.984 104.135,959.999 108,967C111.639,959.444 114.361,983.154 118,986C119.2,996.977 118.611,1011.52 124,1017ZM762,1007C759.273,1007.6 750.288,956.761 754,987C741.438,968.967 754.894,1000.33 762,1007ZM77,998C74.363,1001.71 59.7943,975.991 55,968C61.3829,955.646 74.2,986.413 77,998ZM103,997C103.356,987.033 107.662,981.545 103,974C94.8692,974.369 100.582,994.076 103,997ZM542,994C554.036,996.681 538.77,980.187 545,981C539.067,976.754 561.45,984.126 557,967C561.768,951.258 556.317,980.474 553,983C553.808,987.618 540.704,1000.46 542,994ZM317,981C323.411,980.441 318.445,968.15 314,971C308.639,973.983 319.286,979.631 317,981ZM240,980C248.219,975.22 240.883,955.914 239,954C231.997,963.378 237.533,970.253 240,980ZM474,980C477.669,969.81 465.929,961.461 465,952C461.855,941.813 451.864,938.468 447,930C443.773,923.617 416.699,927.615 428,940C435.175,953.643 433.724,943.979 442,948C429.884,941.55 450.894,934.432 449,944C434.115,954.461 464.759,940.333 456,949C430.035,955.82 464.491,949.033 462,952C462.5,964.832 472.282,968.386 474,980ZM840,980C844.396,973.625 842.295,945.89 840,955C839.799,959.058 837.535,963.581 835,961C843.746,958.396 838.11,964.657 840,980ZM489,976C483.816,971.227 479.805,957.734 492,967C496.069,985.655 485.164,952.723 489,976ZM854,970C853.455,972.86 848.089,948.325 848,959C845.327,956.003 844.15,964.35 854,970ZM338,966C342.804,964.539 351.87,960.884 351,958C348.448,958.879 335.93,959.081 338,966ZM46,964C49.8991,959.329 39.7843,946.909 39,940C33.2946,946.477 43.045,959.262 46,964ZM714,961C704.488,974.549 693.755,941.006 712,957C697.263,942.343 716.903,957.044 714,961ZM833,960C839.261,947.637 849.695,938.62 832,936C817.889,941.874 816.035,931.889 819,920C814.382,914.974 816.784,919.497 821,919C835.977,922.297 810.55,914.736 809,911C784.755,913.54 799.296,897.854 795,902C815.977,910.446 790.647,889.057 785,901C781.393,917.168 811.398,907.917 811,920C802.941,937.33 827.826,942.419 826,946C831.125,944.887 832.32,942.975 833,948C828.454,956.56 833.416,953.663 833,960ZM919,959C912.653,965.601 915.063,940.762 910,935C905.817,925.108 897.946,915.963 907,908C904.548,892.069 913.637,918.539 914,920C919.635,931.715 915.645,946.122 919,959ZM561,957C557.396,954.414 533.437,961.506 523,955C509.012,952.323 495.503,949.162 489,939C479.941,931.394 466.669,927.996 458,920C436.571,907.826 454.001,912.383 465,921C474.072,928.593 486.159,933.176 494,942C502.569,950.096 517.636,951.699 532,954C548.592,953.927 566.416,955.081 578,950C604.812,950.992 565.566,951.3 561,957ZM120,952C121.732,969.566 114.916,943.646 112,941C110.197,930.626 110.803,916.063 109,907C109.308,894.515 107.797,882.069 106,873C114.789,874.148 112.342,872.866 115,857C123.037,857.43 128.48,830.833 126,851C123.367,860.174 125.035,874.333 126,884C126.493,896.67 125.715,909.849 125,920C123.83,931.007 118.101,939.235 120,952ZM225,945C229.759,935.867 231.028,918.953 225,924C222.521,929.726 221.299,927.929 225,945ZM612,940C617.681,937.388 648.43,921.06 631,932C630.555,941.112 590.882,946.252 612,940ZM445,934C446.586,934.448 435.381,940.682 430,937C426.288,934.447 443.424,934.366 445,934ZM218,925C218.931,912.992 206.967,901.813 211,898C210.021,892.17 201.057,871.572 203,867C200.018,868.142 201.927,838.643 193,835C183.958,827.798 176.128,817.863 169,810C150.781,793.699 166.967,819.337 173,824C180.387,832.857 193.082,837.927 194,852C196.026,866.639 197.175,882.16 202,894C204.616,907.12 213.673,917.926 218,925ZM273,925C281.041,918.585 263.396,897.658 275,911C276.972,923.517 289.289,925.87 282,911C280.409,903.841 266.992,895.185 264,903C266.09,904.924 273.994,915.3 273,925ZM84,916C88.6479,898.192 82.3938,876.526 83,861C76.5949,875.876 84.0376,898.632 84,916ZM876,915C881.604,908.78 871.36,911.26 876,899C871.374,897.36 868.498,909.166 876,915ZM75,913C75.1855,906.626 73.545,895.374 71,889C68.9523,896.851 71.2171,907.91 75,913ZM676,905C704.741,903.333 659.441,896.276 657,906C644.433,911.431 631.063,916.065 620,923C595.959,933.215 632.13,920.234 639,918C648.169,911.214 671.338,910.785 676,905ZM960,905C962.429,897.987 960.498,882.416 959,875C956.406,885.447 961.228,892.892 960,905ZM852,904C861.382,906.025 860.257,891.529 852,895C839.659,894.8 848.065,903.299 852,904ZM414,901C397.522,907.487 386.344,880.825 383,877C388.691,871.497 402.511,897.451 414,901ZM629,900C628.08,879.078 638.375,895.073 649,888C632.57,871.52 624.011,879.519 629,900ZM137,898C142.013,887.015 145.373,874.372 147,860C149.645,845.549 151.685,833.929 149,818C143.03,821.258 146.451,845.175 143,856C142.04,871.038 138.399,883.401 137,898ZM273,890C280.32,891.16 276.24,878.655 271,884C268.665,886.562 265.567,888.661 273,890ZM722,889C732.31,886.682 707.298,880.93 700,885C690.305,888.525 716.742,884.921 722,889ZM747,886C747.145,878.737 737.043,873.412 733,869C732.152,876.966 745.724,878.82 747,886ZM776,883C786.641,866.714 774.655,864.389 790,878C793.836,870.762 785.894,859.122 777,854C762.29,869.462 778.921,833.641 766,858C780.057,863.559 761.115,882.566 776,883ZM183,879C181.814,868.004 175.507,854.938 171,846C164.071,837.597 161.451,824.88 154,817C153.916,829.267 160.458,842.097 166,850C171.693,859.639 178.493,868.175 183,879ZM413,876C409.86,872.156 397.517,865.626 390,861C383.055,853.947 371.222,851.776 364,845C352.843,842.158 345.944,835.055 335,832C323.021,832.275 323.371,830.266 321,827C325.85,815.239 342.056,831.229 334,830C344.871,833.128 352.592,839.41 363,843C371.989,848.01 381.796,852.206 390,858C396.866,864.668 407.848,868.907 413,876ZM960,872C964.783,860.146 960.274,850.534 960,840C953.466,833.203 947.705,825.627 937,823C940.239,829.541 951.713,833.906 955,843C956.182,848.635 960.463,860.2 960,872ZM885,869C895.103,863.643 883.755,845.633 887,828C892.443,818.137 870.651,802.522 878,827C877.441,839.824 884.526,866.586 878,854C877.491,846.512 873.315,855.931 875,858C873.909,876.482 883.188,851.974 885,869ZM281,868C298.156,852.45 266.129,846.789 271,864C270.788,870.18 272.351,859.85 273,858C289.875,853.007 262.175,863.794 281,868ZM689,867C690.626,849.277 697.132,841.495 699,854C686.395,866.357 692.306,866.138 696,866C701.572,865.558 714.148,842.091 707,846C714.539,835.069 705.352,818.671 708,808C706.171,786.746 696.432,799.554 703,806C701.738,803.103 694.358,805.134 699,806C715.579,814.126 678.397,803.642 697,811C711.089,807.324 683.765,825.353 696,833C691.828,844.513 686.151,853.75 689,867ZM413,866C417.351,864.728 412.664,857.278 410,857C393.29,839.05 420.434,860.764 403,843C387.287,832.451 397.345,818.087 388,802C381.561,793.868 387.564,775.85 389,756C394.643,721.647 380.552,746.206 369,754C356.26,762.233 346.721,774.957 338,786C336.248,789.581 331.123,789.791 329,793C313.708,805.484 340.325,801.89 350,804C364.861,810.111 372.017,825.219 384,833C394.964,842.701 404.409,853.927 413,866ZM428,858C432.821,850.636 430.145,835.996 428,829C425.303,831.681 428.06,850.977 428,858ZM669,850C677.414,845.749 676.931,832.596 682,825C682.364,815.452 688.063,800.151 682,800C679.839,808.163 679.694,828.156 673,823C676.435,830.62 670.683,845.508 669,850ZM902,848C914.305,845.169 913.029,825.642 922,822C909.83,822.443 906.916,837.779 902,848ZM747,832C748.243,823.062 759.546,807.235 755,804C756.094,785.262 743.459,811.919 744,819C740.478,833.672 750.171,819.252 750,805C757.786,799.949 746.278,823.846 747,832ZM368,826C368.069,820.026 354.811,808.967 342,808C342.751,813.154 357.796,822.427 368,826ZM720,821C721.319,811.103 713.486,802.404 712,794C709.134,784.689 704.994,774.872 702,767C698.504,758.589 695.682,745.489 691,747C685.458,750.302 688.824,777.793 691,772C691.461,754.621 697.444,781.55 698,786C694.658,805.217 702.727,802.952 699,786C697.109,774.505 707.35,801.207 708,798C710.892,804.779 717.702,812.135 720,821ZM398,818C400.594,800.371 402.877,819.157 406,813C399.043,800.389 391.845,803.223 398,818ZM210,807C237.98,803.389 220.807,805.91 206,801C178.253,796.726 196.047,805.535 210,807ZM508,805C513.985,806.534 520.864,802.872 513,803C514.528,798.605 543.679,793.753 515,797C509.516,796.251 507.349,801.119 503,800C480.172,792.327 494.726,803.856 508,805ZM280,799C269.619,799.329 306.677,779.636 296,799C296.013,817.347 257.264,794.184 280,799ZM851,798C842.627,798.331 821.621,798.234 811,797C801.357,791.978 793.467,785.198 782,782C763.733,782.367 768.703,766.858 756,775C747.193,781.986 729.717,778.492 722,773C716.13,767.636 745.115,781.899 749,771C762.936,764.045 772.063,775.298 781,779C795.081,779.809 809.837,781.543 819,786C829.103,790.562 841.406,792.929 851,798ZM493,795C503.818,796.149 540.822,790.854 513,791C535.509,780.747 506.497,792.37 495,787C480.509,784.826 474.307,774.358 457,775C437.191,771.049 434.226,785.868 453,776C468.176,777.489 478.766,783.569 490,789C515.493,796.381 486.042,792.74 479,786C472.451,780.846 438.644,778.328 457,782C467.957,787.288 481.986,791.023 493,795ZM507,785C507.973,767.316 518.058,795.572 511,771C514.976,759.151 507.6,738.267 508,761C508.49,773.822 500.423,782.469 489,779C478.559,774.156 488.599,756.038 486,749C482.822,753.767 483.256,782.549 479,772C481.235,766.032 484.635,735.792 480,756C484.202,769.093 461.594,775.767 477,776C485.654,780.202 496.265,784.179 507,785ZM533,785C553.139,784.072 565.333,780.84 579,774C596.485,780.871 592.329,769.415 600,751C604.038,752.368 594.81,714.581 596,741C596.627,746.184 600.337,748.356 597,751C594.596,777.435 593.312,745.236 592,741C591.338,711.531 587.108,761.302 581,763C586.201,754.724 587.358,719.5 581,755C567.598,778.866 592.122,716.317 577,747C574.75,754.356 573.544,744.125 576,743C569.332,718.711 574.351,736.325 572,748C580.662,766.062 558.005,776.516 559,770C568.054,750.448 551,740.721 554,767C537.715,794.392 560.349,749.821 551,752C536.641,772.308 569.77,721.99 545,748C541.901,751.464 546.687,758.371 544,760C545.317,767.499 540.683,761.193 542,759C541.099,741.414 535.216,769.765 539,773C541.338,772.62 541.202,765.346 541,766C548.602,783.777 525.865,767.474 538,756C538.901,750.502 542.697,750.92 541,748C541.694,719.709 541.307,748.909 536,754C532.396,766.641 513.671,777.444 533,785ZM519,781C521.496,778.761 520.505,770.734 523,770C526.027,747.777 514.198,777.988 517,764C514.166,755.848 512.878,728.812 511,740C509.166,742.901 504.67,745.44 501,745C484.521,737.534 509.605,749.545 511,751C512.236,754.431 514.709,756.625 515,761C513.365,763.643 515.039,766.357 514,769C516.705,787.986 517.211,763.625 519,781ZM544,779C557.386,778.233 562.624,736.021 556,770C550.074,792.047 523.966,769.916 544,779ZM489,778C507.206,782.169 499.867,758.933 495,772C490.004,782.446 480.015,753.875 489,778ZM492,775C497.755,760.142 492.196,745.71 490,735C484.399,747.807 495.537,757.5 492,775ZM457,773C469.015,765.391 469.718,745.122 481,738C498.737,716.408 464.376,749.254 470,741C469.511,741.753 463.907,771.39 458,766C460.6,744.18 424.365,770.817 457,773ZM463,773C476.517,775.185 468.945,756.277 474,750C466.891,754.223 470.659,769.327 463,773ZM602,773C602.388,770.837 603.448,764.018 606,761C602.163,732.487 620.229,756.88 618,752C627.589,744.227 607.558,702.362 611,722C615.333,723.667 614.372,730.628 616,735C615.429,738.474 618.904,744.775 616,746C612.309,736.524 613.47,727.778 607,743C607.442,739.818 606.753,724.024 606,734C607.907,749.074 598.593,760.327 602,773ZM502,770C507.932,764.204 500.85,738.743 497,756C502.115,747.512 499.365,759.055 502,770ZM403,768C394.301,768.395 403.499,749.005 401,738C403.572,728.069 410.025,751.877 410,758C410.198,782.679 405.799,751.135 404,746C403.119,736.879 401.472,761.232 403,768ZM562,767C574.572,759.511 569.705,736.383 569,721C566.766,736.484 569.736,755.62 562,767ZM756,767C749.04,765.524 722.532,780.155 717,761C704.865,758.985 745.804,767.028 756,767ZM439,758C451.173,755.235 447.77,748.901 439,751C428.999,737.89 434.177,760.12 439,758ZM670,756C672.895,758.319 668.665,762.55 670,756C666.142,750.83 666.013,780.774 666,761C666.615,748.482 665.895,732.109 665,725C663.254,706.913 666.966,703.824 668,723C668.517,732.848 668.559,743.94 670,756ZM382,754C387.157,745.696 383.985,784.537 377,787C379.868,784.478 379.953,753.995 375,760C369.508,762.583 350.88,790.937 356,775C360.964,765.652 374.088,750.624 382,754ZM452,753C458.183,748.769 461.81,722.311 465,724C463.149,721.587 462.101,722.496 459,726C459.309,723.381 458.952,714.715 458,718C452.004,735.079 459.012,709.636 457,710C454.311,719.829 445.963,743.414 450,745C452.007,740.764 450.937,738.569 452,735C462.714,724.652 447.637,757.966 452,753ZM561,751C562.26,738.992 564.298,718.73 552,719C565.423,720.846 556.461,743.932 561,751ZM437,744C443.925,739.416 443.635,727.027 442,719C438.508,723.519 440.868,735.727 437,744ZM624,741C627.859,734.081 635.17,724.834 626,720C629.747,729.152 621.046,735.117 624,741ZM465,739C466.625,733.438 479.125,720.213 473,720C467.049,727.426 460.791,733.435 465,739ZM470,739C475.517,734.021 484.398,726.924 482,718C481.537,725.387 472.233,732.06 470,739ZM497,738C499.697,723.776 514.091,719.766 519,709C522.341,708.262 521.993,701.544 523,700C529.202,678.115 516.981,686.586 519,688C535.785,713.101 496.511,703.526 514,708C515.2,718.773 494.688,722.03 497,738ZM418,733C420.538,728.94 423.608,714.978 421,713C415.111,712.995 421.283,727.432 418,733ZM430,733C430.016,731.103 436.3,722.898 436,716C434.431,718.266 426.174,727.041 430,733ZM651,732C652.694,736.085 652.133,768.316 651,753C649.306,748.915 649.867,716.684 651,732ZM637,731C643.529,723.185 639.302,708.72 639,697C635.753,709.307 639.918,717.131 637,731ZM634,729C636.996,724.834 632.341,719.76 636,717C632.162,722.564 620.432,711.402 619,699C608.067,695.783 629.697,723.135 634,729ZM448,721C448.541,712.965 458.235,701.15 458,701C451.934,706.816 443.959,712.256 448,721ZM530,712C549.698,708.614 551.726,699.426 544,682C543.359,690.818 550.099,710.878 530,712ZM523,708C535.506,710.632 532.308,672.957 531,690C532.738,696.515 525.787,694.2 528,689C523.928,676.512 528.544,707.444 523,708ZM435,706C449.861,691.724 432.111,685.194 439,665C434.767,656.896 437.115,696.628 435,706ZM662,704C667.299,712.66 653.771,741.938 658,720C655.345,715.777 654.746,719.604 662,704ZM672,683C662.499,681.742 670.738,658.824 672,650C671.857,658.508 654.91,679.497 672,683ZM431,682C433.858,674.234 434.249,664.817 432,658C428.585,659.057 432.66,675.532 431,682ZM441,682C449.963,670.02 454.344,649.678 461,639C449.93,650.899 449.097,667.531 441,682ZM504,675C516.056,670.703 476.187,661.29 489,662C504.864,658.241 529.527,661.931 544,658C560.53,654.532 576.09,650.088 594,648C607.91,652.226 617.683,676.235 605,648C604.771,629.269 582.165,654.525 567,650C549.481,652.104 533.464,657.06 515,657C494.508,657.95 477.52,655.419 464,664C469.15,663.088 496.88,667.65 504,675ZM346,674C357.102,673.605 368.646,671.821 366,659C363.525,668.022 352.337,670.162 346,674ZM624,674C627.605,666.464 624.123,653.155 621,647C620.776,651.156 623.303,665.419 624,674ZM701,659C707.919,658.456 695.892,654.199 696,653C685.056,656.704 674.948,622.022 679,640C677.32,645.019 687.493,649.649 681,649C659.864,649.279 697.247,654.532 701,659ZM615,658C616.259,650.553 613.213,640.707 608,637C610.903,640.286 611.293,652.788 615,658ZM485,656C494.332,651.711 508.743,655.741 504,647C498.338,645.695 481.52,653.814 485,656ZM709,655C705.344,643.938 686.946,642.251 681,631C681.793,644.925 701.605,645.198 709,655ZM508,652C504.697,647.261 518.83,644.118 528,649C554.009,655.333 511.18,639.787 530,645C552.034,652.019 538.385,643.137 527,641C517.657,639.301 496.32,641.508 508,652ZM573,644C605.906,639.781 576.08,642.682 563,638C532.897,635.823 563.177,638.711 573,644ZM699,638C698.169,634.129 687.025,627.972 682,623C678.44,612.352 687.522,602.605 682,593C680.975,598.094 678.879,610.4 679,622C683.377,629.622 691.237,633.764 699,638ZM490,631C497.467,623.136 502.97,613.302 513,608C501.49,611.822 495.058,620.726 490,631ZM480,629C485.789,621.457 495.971,618.303 503,612C494.642,616.974 482.483,618.151 480,629ZM507,629C512.371,625.286 516.082,614.117 515,608C513.888,616.34 505.04,622.033 507,629ZM568,611C569.382,603.178 554.269,600.815 548,601C550.912,602.019 564.245,605.477 568,611ZM704,608C702.032,597.355 697.048,584.089 698,568C702.875,552.717 697.688,600.75 710,584C701.433,577.785 701.361,558.545 702,546C698.99,540.444 698.435,578.376 698,544C696.24,532.969 699.805,517.081 701,503C695.292,505.741 694.427,542.378 694,512C703.411,494.406 681.744,516.963 692,530C689.129,524.074 686.11,505.473 684,495C682.412,481.473 675.836,469.15 678,455C680.164,438.678 685.697,422.169 683,452C683.751,467.248 685.482,481.52 687,496C695.54,477.643 684.749,526.652 693,501C692.492,490.578 686.357,479.687 688,462C684.903,449.098 686.045,431.953 683,419C673.163,395.684 691.472,403.991 690,422C691.989,436.377 693.634,451.199 691,464C691.378,471.397 695.441,507.974 698,487C697.69,482.691 698.047,479.047 699,476C704.899,451.743 694.768,478.54 695,468C700.661,453.952 693.375,438.889 694,427C684.156,405.529 704.88,409.279 710,421C723.079,441.452 712.929,413.285 704,411C691.535,407.467 682.217,400.781 672,395C665.728,394.062 651.41,363.731 659,384C665.803,392.765 672.675,403.019 671,419C668.865,439.322 667.715,445.171 672,450C674.118,463.881 677.3,476.701 680,490C684.193,501.806 683.307,518.695 689,529C689.721,543.315 689.24,559.236 690,571C686.172,581.838 691.493,612.915 690,579C696.953,565.274 690.739,554.218 692,539C692.86,530.663 695.406,562.12 696,571C693.883,585.299 698.921,599.634 704,608ZM491,600C508.012,603.258 511.036,581.432 498,596C481.038,591.38 476.508,591.674 491,600ZM531,600C532.635,590.015 518.247,589.751 515,582C512.239,573.875 493.702,573.872 494,585C495.144,603.432 504.818,581.147 511,584C516.087,590.912 525.678,593.324 531,600ZM480,593C477.042,581.289 480.622,557.114 482,554C473.605,562.473 473.466,583.527 480,593ZM308,592C312.572,579.907 321.024,571.689 325,559C331.14,553.939 333.04,552.83 335,532C340.219,526.481 342.116,505.063 341,532C345.793,526.557 343.125,575.153 340,546C339.66,511.362 333.133,549.18 340,558C351.028,565.957 344.419,581.87 351,590C351.529,582.817 352.889,554.382 347,558C345.84,541.804 348.409,523.337 347,511C346.725,484.504 340.803,492.514 338,512C340.434,529.469 319.146,529.423 325,546C325.772,551.613 322.229,555.137 323,549C321.306,529.303 316.332,535.558 320,551C325.531,557.067 308.87,586.196 313,575C316.501,562.356 318.033,547.135 315,533C303.676,512.577 321.282,565.777 310,539C297.552,524.89 306.548,535.786 309,552C308.898,569.417 305.45,581.683 308,592ZM551,590C565.076,592.077 569.525,584.524 574,577C577.168,566.051 573.708,554.081 569,548C566.027,551.457 575.507,562.706 572,575C569.97,584.969 560.758,587.759 551,590ZM556,582C566.055,577.907 554.08,565.482 547,573C541.915,581.405 549.144,576.162 556,582ZM704,566C711.017,553.875 707.383,532.336 708,519C701.394,529.421 705.846,549.824 704,566ZM756,559C753.362,552.334 742.939,545.666 739,539C731.86,533.475 727.278,525.387 722,518C716.128,498.01 719.962,506.624 728,515C734.508,521.157 738.323,530.012 743,538C752.705,546.408 737.689,524.411 737,521C730.781,514.554 727.986,504.68 722,498C730.556,512.965 726.044,485.165 720,494C719.614,485.707 722.864,470.488 724,470C728.283,472.586 737.93,495.329 736,485C735.158,473.177 724.237,471.428 724,459C723.637,451.867 720.321,478.148 717,481C716.869,489.716 718.199,504.098 719,515C717.103,528.835 713.232,496.774 714,495C713.19,505.144 705.929,518.463 716,523C723.047,528.618 730.161,534.174 736,541C741.84,547.826 748.952,553.382 756,559ZM282,556C290.558,542.583 303.686,531.266 306,514C301.745,529.324 284.716,536.74 282,556ZM277,545C282.869,538.871 289.634,533.633 294,526C298.442,518.444 304.62,512.619 307,503C308.976,507.414 310.868,520.784 306,528C311.704,527.295 312.196,514.195 311,503C311.414,491.798 307.564,480.217 309,471C309.735,463.058 309.82,437.537 308,452C306.694,462.693 307.445,475.446 302,482C296.331,488.33 294.156,498.157 292,508C288.949,516.948 280.833,520.834 274,526C271.35,529.11 253.437,543.941 268,538C272.581,530.582 282.798,528.797 286,520C293.302,515.303 294.714,504.713 297,495C302.337,485.301 305.069,495.337 306,482C310.231,488.334 305.409,504.708 302,498C299.055,507.054 297.423,517.424 292,524C289.054,533.053 278.569,534.57 277,545ZM750,540C750.892,528.36 743.371,517.657 741,508C737.591,497.196 731.542,487.391 725,481C727.498,491.592 737.873,500.413 737,510C743.156,518.057 745.987,531.08 750,540ZM701,533C705.278,510.087 710.298,515.961 714,490C711.394,494.75 702.424,516.768 701,533ZM315,531C331.4,533.865 333.235,520.48 335,510C332.806,494.904 347.315,491.829 343,479C335.772,472.694 336.492,456.753 335,446C339.892,427.146 334.303,427.151 333,446C332.082,461.217 332.383,471.397 334,484C330.268,482.143 330.159,462.994 330,452C330.824,439.289 333.821,427.066 337,418C338.939,406.607 343.9,398.232 346,387C348.576,376.042 352.131,364.377 356,356C361.676,348.141 363.182,334.427 370,329C370.472,317.017 372.406,300.465 370,290C374.692,268.247 367.503,277.332 367,293C367.207,306.741 363.526,318.281 359,326C354.16,336.351 352.078,346.729 349,348C347.533,353.228 336.076,378.477 339,363C344.8,359.608 345.126,343.432 351,337C354.222,330.076 361.791,313.189 360,311C356.225,316.292 350.342,338.129 349,333C351.618,322.083 356.388,311.633 360,303C362.806,293.48 369.909,275.144 360,293C357.708,304.242 352.142,313.896 349,323C346.622,333.954 345.135,345.803 340,354C336.199,363.734 334.205,376.96 329,384C325.5,393.832 320.585,402.253 318,413C311.599,428.368 316.487,437.735 319,417C322.23,406.695 327.005,396.25 331,388C335.253,384.898 344.997,361.292 343,371C340.323,381.655 333.245,387.913 330,398C325.359,406.894 320.557,417.311 320,429C318.505,440.837 315.227,450.895 312,461C311.768,474.766 311.88,489.875 314,500C317.2,513.431 306.995,527.359 315,531ZM259,528C264.087,511.8 287.067,508.563 290,495C277.789,505.141 264.242,507.195 259,528ZM366,521C362.718,514.124 365.2,496.361 366,486C372.672,472.02 365.447,506.121 371,508C378.489,527.385 377.454,516.075 373,503C371.29,492.104 368.626,477.112 371,466C371.425,461.844 360.699,434.875 364,450C367.538,455.289 370.246,484.443 366,475C361.486,483.691 367.038,453.81 362,450C360.906,437.762 360.054,425.278 358,414C362.592,389.868 354.093,414.463 356,425C356.156,436.597 352.621,401.916 357,399C359.037,387.503 361.046,374.291 363,364C361.816,348.893 357.687,380.544 357,385C353.064,394.598 352.491,409.246 352,421C353.162,433.373 355.608,446.147 358,456C363.57,466.435 357.251,481.682 363,488C362.354,499.426 357.94,514.993 366,521ZM418,521C430.287,521.288 440.627,519.626 449,516C458.384,513.385 466.174,509.172 473,504C463.363,506.362 456.413,511.414 447,514C438.829,517.828 426.686,517.688 418,521ZM382,519C379.592,516.437 377.703,493.2 376,482C371.771,484.549 376.199,513.574 382,519ZM407,516C414.109,521.111 391.446,492.739 408,502C400.335,498.52 424.659,506.207 418,502C406.32,493.027 410.054,487.958 401,494C391.876,502.18 400.505,508.829 407,516ZM413,513C427.817,517.037 474.265,503.533 450,505C434.846,518.274 398.271,500.574 413,513ZM578,513C574.76,505.946 559.888,498.146 555,489C556.541,497.753 569.542,507.424 578,513ZM702,508C706.595,489.602 718.419,477.22 719,456C715.767,423.76 708.797,437.858 702,416C689.154,410.934 703.476,447.902 701,462C702.37,465.697 703.976,454.578 706,453C705.927,448.848 707.49,444.041 708,442C712.111,425.601 708.28,456.437 706,460C704.886,464.886 704.113,470.114 703,475C695.729,498.713 701.456,497.647 707,478C710.453,475.453 712.734,471.733 712,465C713.409,460.246 698.691,494.036 709,463C710.056,458.057 711.912,453.912 712,448C710.666,418.119 718.514,457.773 715,466C710.955,486.813 698.215,498.988 702,508ZM325,506C338.73,494.286 332.22,532.314 319,529C332.069,524.74 331.854,489.038 323,518C317.895,509.065 327.748,488.875 338,486C350.142,476.211 328.323,500.766 325,506ZM352,505C359.354,494.543 349.91,478.449 353,465C356.51,453.819 350.231,441.542 349,429C345.518,435.181 354.323,454.164 351,464C350.518,477.919 353.101,493.38 352,505ZM434,505C448.016,506.41 454.092,494.83 454,486C454.31,489.447 485.573,494.889 478,487C467.421,484.045 454.655,481.59 444,480C436.157,480.108 408.711,484.978 422,487C429.722,485.124 452.669,476.441 448,492C446.912,506.067 425.438,501.108 425,492C435.869,498.536 424.101,484.88 415,489C419.662,486.688 425.66,504.179 434,505ZM388,504C381.309,488.707 402.746,483.021 390,501C407.799,494.87 390.115,478.057 385,470C378.699,455.919 378.603,438.89 382,426C382,421.334 382,416.666 382,412C381.778,404.762 387.388,413.07 391,395C392.024,391.358 393.448,388.114 396,386C393.003,380.103 390.134,382.365 401,370C404.414,368.748 402.503,362.17 403,358C405.326,333.708 405.983,369.247 404,375C398.878,388.151 389.795,398.754 388,414C389.248,439.528 391.604,393.477 397,391C407.56,383.287 409.378,365.419 408,347C406.872,327.874 412.098,315.096 417,302C420.991,287.718 427.552,274.593 432,262C442.707,254.709 446.732,240.73 455,231C475.159,211.484 448.642,229.731 446,239C438.634,249.632 427.513,256.515 424,271C423.473,275.139 420.138,276.472 421,282C412.439,306.33 420.406,277.934 417,280C412.753,293.751 406.942,305.943 406,323C401.348,336.621 402.819,357.778 398,370C387.938,370.428 384.316,405.601 382,394C387.376,385.786 388.58,353.668 395,360C400.416,347.418 400.232,329.23 403,314C406.081,298.808 411.635,284.676 417,273C423.853,260.133 433.867,242.699 416,262C413.667,264.333 411.333,266.667 409,269C397.667,289.763 417.924,258.604 416,267C411.153,283.302 402.453,281.33 400,301C396.593,280.805 398.554,310.444 393,321C385.01,353.726 401.236,303.23 401,317C398.68,332.195 386.231,342.073 383,352C390.269,365.771 380.824,382.461 380,397C379.665,431.248 377.099,386.58 373,383C368.969,386.19 376.727,410.489 378,422C374.641,433.546 371.901,443.825 374,464C376.889,479.109 383.436,490.566 388,504ZM321,503C313.958,535.593 322.281,486.281 317,475C313.296,454.184 322.58,438.647 325,421C333.52,408.189 341.566,394.897 344,376C349.312,360.34 356.336,345.1 361,330C376.752,304.371 357.324,343.669 356,353C347.156,365.487 344.679,384.348 340,401C332.299,414.63 322.559,426.228 322,447C323.192,467.735 320.906,484.103 321,503ZM487,499C491.218,490.939 493.47,473.581 490,465C490.083,472.863 488.012,487.773 487,499ZM431,497C439.215,498.463 447.339,491.919 441,486C435.03,483.194 429.542,494.072 431,497ZM463,497C470.716,499.148 485.23,490.496 479,492C473.165,497.627 455.555,488.056 463,497ZM589,494C609.55,499.047 617.352,473.445 630,479C642.042,480.35 614.568,458.259 600,462C580.354,460.176 567.345,473.009 552,477C545.51,483.039 559.938,477.322 560,480C562.333,482.111 553.311,480.437 551,481C544.478,478.911 571.613,491.719 568,478C581.8,450.46 572.814,501.663 601,485C609.995,481.16 595.862,482.431 595,484C577.607,487.404 575.314,459.095 597,466C624.587,465.683 625.027,481.012 605,489C601.797,489.997 594.29,493.535 592,491C570.449,485.961 565.085,491.316 589,494ZM746,490C751.122,478.118 743.093,467.346 740,458C731.453,460.225 727.093,444.75 724,436C722.587,436.057 726.222,458.092 734,460C740.129,467.87 746.603,475.398 746,490ZM346,485C348.713,473.66 346.833,458.203 348,443C344.831,451.258 343.901,472.023 346,485ZM273,483C278.679,476.014 285.79,470.456 286,458C283.575,468.24 277.003,474.338 273,483ZM597,482C606.29,480.39 598.564,460.923 591,469C581.998,478.056 596.204,479.817 597,482ZM742,482C742.542,470.71 730.357,464.671 727,456C726.092,467.656 739.442,472.53 742,482ZM475,481C490.004,481.576 486.309,458.409 476,459C472.089,458.257 492.357,478.708 475,481ZM473,480C472.374,472.89 459.648,466.208 448,465C433.491,465.156 422.469,468.804 411,472C398.861,472.479 394.645,459.838 391,452C385.301,442.207 387.27,426.166 386,417C383.772,418.284 382.989,442.053 387,450C390.56,461.105 394.75,471.585 406,475C419.051,476.85 426.595,467.356 441,468C456.751,466.914 464.37,473.964 473,480ZM385,476C382.881,490.366 376.585,464.058 376,458C375.22,444.857 381.55,474.306 385,476ZM635,474C636.95,460.584 623.128,455.609 612,454C601.22,450.193 584.781,450.192 574,454C562.432,454.059 557.659,472.069 548,466C548.528,454.901 565.999,449.589 566,446C556.16,451.05 542.299,453.679 545,470C555.809,477.974 562.44,460.852 572,459C581.076,452.978 596.516,453.575 609,456C620.987,458.678 632.525,461.81 635,474ZM665,473C664.657,465.728 660.797,450.013 664,441C665.073,430.074 666.254,419.253 667,408C664.928,402.28 657.879,382.894 658,388C660.462,396.535 664.499,407.151 663,417C663.267,426.271 664.212,447.953 661,426C658.305,416.696 655.875,407.124 653,398C650.166,388.657 645.558,379.308 644,370C640.309,361.692 639.367,350.631 637,341C636.817,334.354 630.233,311.459 630,321C633.114,329.885 633.357,341.644 636,351C638.926,366.566 629.69,340.057 631,335C628.135,325.866 628.773,313.226 626,304C623.046,294.777 618.612,285.254 616,277C623.177,283.795 617.425,259.861 615,256C614.329,241.783 598.436,249.305 591,251C580.741,252.739 570.216,254.218 561,257C550.657,258.834 539.737,261.871 531,264C522.64,267.639 512.582,269.583 505,274C498.172,277.15 483.768,282.708 486,288C491.26,281.261 501.341,279.339 509,275C519.357,273.18 527.167,267.033 537,266C545.647,262.648 556.838,261.837 566,259C576.185,255.482 590.449,256.661 595,263C608.437,274.544 602.812,261.537 603,251C606.699,250.227 606.271,274.128 608,277C611.375,285.624 615.953,293.048 621,300C623.452,309.725 624.938,322.196 627,331C629.166,340.833 630.58,351.422 635,359C638.728,367.449 642.458,377.676 645,386C648.3,394.699 651.3,403.701 654,413C657.158,421.055 660.594,434.621 659,443C661.603,452.396 660.938,465.064 665,473ZM747,472C750.082,461.793 747.145,443.865 741,446C741.197,447.063 749.647,459.861 747,472ZM343,460C346.323,444.395 345.921,424.391 343,409C340.051,425.059 344.32,443.68 343,460ZM370,457C369.96,439.963 368.568,416.144 368,402C369.114,406.286 369.887,413.196 371,416C374.008,446.777 375.43,414.148 371,404C369.809,399.791 368.218,393.7 367,391C364.364,363.104 361.211,382.087 363,399C363.572,420.074 365.563,440.994 370,457ZM393,451C391.655,437.037 399.809,430.885 402,416C403.604,408.992 412.429,380.171 405,386C398.458,395.457 393.009,406.011 394,423C394.73,425.476 392.056,433.5 392,429C388.603,421.927 389.569,449.083 393,451ZM267,450C273.926,442.261 283.507,437.172 284,423C287.629,403.644 277.359,433.983 269,432C247.707,439.578 265.786,441.147 275,432C286.769,423.937 268.902,445.362 267,450ZM748,450C752.229,449.986 751.992,435.791 749,436C746.866,441.162 745.661,445.5 748,450ZM419,449C421.084,447.209 436.266,448.684 449,448C442.843,445.612 418.064,445.388 445,444C461.989,449.594 463.825,446.513 449,441C436.458,441.123 424.254,441.589 419,449ZM472,447C473.799,440.066 454.881,435.18 440,437C442.84,439.295 466.27,439.669 472,447ZM395,446C399.454,432.857 407.136,421.494 413,411C425.185,397.536 414.399,395.746 423,378C422.438,364.257 430.636,341.436 428,338C425.138,352.734 416.937,363.579 414,377C408.881,411.017 417.934,379.513 420,374C416.672,388.269 416.536,407.178 408,415C414.513,399.668 411.656,383.226 406,410C408.394,420.497 393.508,434.612 395,446ZM762,445C761.547,425.991 745.719,422.255 740,411C719.396,380.641 746.231,414.811 745,409C743.326,403.753 739.923,402.238 747,405C765.217,417.903 755.218,406.218 744,400C732.485,394.847 711.036,384.256 714,375C706.99,361.345 701.334,346.331 690,337C684.058,322.644 673.503,311.581 667,299C662.383,285.054 653.813,252.884 660,289C662.607,306.69 675.199,315.717 681,329C684.438,340.36 709.95,363.692 686,344C678.374,332.061 670.608,316.316 665,306C664.978,311.355 664.482,317.185 667,320C667.31,323.69 668.667,326.334 671,328C668.648,311.925 675.784,336.109 679,338C685.014,352.284 705.295,353.621 707,371C714.094,383.435 686.976,349.806 688,356C709.378,373.718 686.882,362.347 707,378C716.389,388.909 730.122,396.793 737,409C744.81,421.488 753.462,434.453 762,445ZM745,441C743.105,426.744 726.356,416.39 724,399C725.805,422.247 712.792,376.359 702,378C689.181,370.084 719.186,396.157 719,406C727.979,412.926 737.718,430.542 745,441ZM288,438C303.287,427.813 298.01,422.162 296,407C289.461,400.183 297.396,436.243 288,438ZM308,436C309.894,428.435 312.326,419.42 314,413C308.531,416.989 307.079,426.985 308,436ZM557,431C567.011,428.227 585.566,424.642 588,421C580.133,425.576 556.972,425.592 557,431ZM746,431C745.936,423.432 736.476,418.829 736,409C731.987,420.645 743.44,423.255 746,431ZM681,425C682.129,431.265 676.479,448.995 674,446C674.721,440.035 681.2,419.463 676,422C673.283,443.262 672.154,426.15 674,414C672.172,395.324 681.512,418.721 681,425ZM661,418C660.819,402.786 655.766,385.184 653,377C652.5,385.303 659.359,405.34 661,418ZM309,413C313.353,410.076 319.813,395.113 320,382C321.945,370.72 330.901,358.689 326,346C325.305,360.636 320.173,370.841 317,383C319.466,406.023 305.556,393.793 309,413ZM304,410C304.977,392.7 305.886,376.045 313,364C304.403,375.787 302.129,391.078 304,410ZM703,408C700.065,403.651 688.252,394.872 682,390C678.22,395.689 668.733,377.503 664,373C663.348,363.281 654.925,353.281 652,344C646.809,335.192 641.976,326.023 640,314C635.576,305.134 641.554,335.746 644,339C650.803,346.409 651.308,361.759 657,369C660.915,379.298 668.414,387.653 676,393C684.396,398.603 693.131,403.87 703,408ZM289,398C292.872,385.627 293.448,368.439 299,359C303.517,348.38 313.396,340.009 314,328C307.373,337.617 300.069,348.079 296,359C290.158,368.294 289.491,385.878 289,398ZM699,396C688.59,387.873 689.555,362.186 677,355C666.037,344.632 654.824,334.507 650,318C641.488,305.973 639.904,281.716 641,264C647.71,272.352 642.182,302.922 652,313C659.894,326.752 665.375,344.181 678,352C700.126,367.217 667.752,339.609 665,333C667.787,327.024 652.636,312.142 652,293C647.796,275.873 645.236,257.095 634,247C608.883,225.229 635.671,252.808 639,263C638.509,269.082 636.051,269.548 638,276C637.437,279.436 639.111,285.111 637,287C632.274,267.902 634.749,295.825 638,300C644.344,315.303 647.14,335.417 657,346C660.382,357.739 673.712,382.37 677,378C665.795,367.559 662.593,347.851 653,337C646.914,311.093 662.105,354.932 668,358C669.886,361.513 672.114,366.968 674,369C687.393,388.162 665.277,345.299 675,356C682.104,370.227 686.225,387.444 699,396ZM294,392C300.718,379.77 300.86,359.582 309,350C315.379,337.431 326.881,328.604 326,310C322.654,325.602 312.543,335.821 308,349C301.364,361.312 296.189,376.466 294,392ZM351,392C354.772,379.528 358.215,365.205 361,353C355.454,363.698 351.871,377.88 351,392ZM377,390C385.225,374.46 379.376,357.606 383,340C379.551,310.737 378.02,359.31 379,366C375.847,358.612 379.36,308.894 375,334C376.197,354.905 374.113,371.446 377,390ZM426,390C430.685,379.354 429.992,363.324 432,350C434.968,338.961 439.45,324.646 439,314C435.115,325.447 432.524,338.193 430,351C428.538,363.206 425.509,380.009 426,390ZM323,388C325.987,378.322 329.658,369.324 334,361C336.599,351.421 339.354,340.22 341,331C343.41,321.233 343.846,307.712 347,300C350.193,291.016 356.062,282.928 358,274C352.9,281.566 348.45,289.785 345,299C341.216,307.394 341.012,321.146 338,329C335.81,338.988 333.429,350.563 333,361C327.583,367.76 324.246,378.38 323,388ZM312,385C315.166,374.159 321.766,361.962 320,350C319.768,361.234 313.189,373.452 312,385ZM369,376C368.782,369.383 368.781,352.618 369,346C366.494,353.698 365.879,368.3 369,376ZM412,369C417.088,359.827 416.483,340.717 421,328C430.104,300.093 417.59,324.349 417,337C410.697,352.269 417.758,313.403 422,310C424.947,296.026 429.919,282.594 435,272C445.334,253.502 448.587,256.745 438,275C451.569,252.146 439.19,283.155 435,289C432.463,303.384 426.609,315.935 425,330C418.194,346.367 417.708,361.701 426,338C430.955,325.623 436.992,314.323 441,301C446.091,289.171 449.677,274.352 453,262C456.123,247.792 461.181,235.512 470,227C483.468,213.219 484.719,209.794 469,223C459.73,231.061 452.243,240.911 446,252C439.107,262.028 430.229,271.554 427,284C421.587,295.508 417.387,309.712 414,322C410.926,335.749 410.171,354.567 412,369ZM432,368C436.065,359.4 437.083,347.749 441,339C446.032,331.855 445.956,317.823 450,311C450.881,301.733 458.537,282.1 455,303C452.51,312.688 449.04,323.174 447,332C441.743,339.409 439.776,350.111 437,360C439.694,361.922 443.306,342.999 446,338C451.167,330.99 452.058,317.924 455,310C458.183,301.006 459.818,288.683 463,281C465.955,271.289 467.827,260.493 474,254C478.238,246.061 483.71,237.576 490,233C500.867,219.078 486.45,224.649 484,234C479.072,241.249 472.279,248.413 469,256C464.271,263.937 460.094,272.428 457,282C451.774,288.951 448.5,299.635 447,309C444.414,318.591 440.798,328.932 439,338C435.565,346.742 432.565,357.699 432,368ZM447,348C453.345,338.101 458.328,325.319 461,313C465.874,301.63 469.884,287.875 475,278C480.592,267.348 484.131,253.122 496,250C519.084,243.364 486.981,255.024 488,264C483.129,266.836 475.259,283.685 472,293C475.303,287.959 482.718,271.983 488,267C497.988,260.744 501.071,246.062 517,247C536.557,247.94 545.181,240.431 520,242C500.643,242.667 487.819,250.753 507,238C521.894,243.666 546.948,233.936 524,228C523.469,216.929 545.413,230.497 546,239C548.309,240.69 549.953,243.048 551,246C575.086,246.77 529.694,250.93 546,247C545.564,238.554 524.264,215.379 537,233C536.262,252.798 544.698,252.974 562,250C554.064,249.75 521.443,261.702 536,253C534.109,244.51 507.159,249.571 503,256C494.197,263.441 486.841,273.851 482,284C468.698,306.456 484.051,285.185 489,278C498.092,270.848 512.895,267.886 523,263C535.958,259.96 548.198,256.197 562,254C573.847,249.603 590.934,248.925 601,244C615.278,245.72 621.865,255.137 623,270C622.731,286.513 628.162,298.847 632,310C636.935,336.333 637.992,318.571 633,303C630.305,297.018 621.267,266.558 627,274C632.767,300.591 630.971,267.44 631,259C624.868,248.887 613.254,242.737 604,237C592.296,220.67 597.911,219.666 605,220C596.16,213.481 575.212,222.769 568,212C560.964,203.037 555.269,192.729 537,195C523.512,193.488 504.943,196.16 490,195C477.287,198.286 462.849,199.85 450,203C437.336,206.581 425.423,212.432 415,217C408.247,226.492 395.428,231.437 384,235C374.35,241.594 361.562,246.571 354,254C345.034,261.033 336.736,268.738 332,280C332.259,296.503 316.874,298.883 319,316C323.395,304.396 330.659,295.657 334,283C338.729,264.482 345.005,267.914 349,269C341.994,282.546 341.455,298.729 350,276C349.431,259.186 360.94,252.931 370,247C380.324,241.08 392.035,235.026 403,231C411.717,223.429 420.59,229.691 405,240C391.865,260.649 407.665,245.243 414,237C428.355,226.729 395.959,262.032 416,242C441.922,239.713 415.199,240.187 412,252C402.701,258.945 395.129,269.139 388,277C382.926,279.629 374.453,310.952 382,303C386.056,290.811 394.571,281.562 401,273C407.46,263.216 417.329,255.319 424,247C445.69,239.251 416.338,237.94 415,227C412.943,216.589 433.23,215.182 441,209C451.963,203.719 471.214,205.204 481,200C495.383,198.226 513.18,199.462 525,198C540.216,199.029 556.678,200.331 561,211C569.302,219.432 583.183,220.68 590,228C608.601,239.837 586.668,249.858 574,241C569.427,237.404 548.74,216.495 555,227C577.683,239.258 541.885,232.137 540,225C539.69,223.564 532.667,219.889 537,220C544.489,217.166 516.776,216.49 514,221C504.102,227.347 495.767,236.776 489,245C482.364,254.362 475.558,263.56 472,276C467.579,287.823 460.472,298.481 459,312C454.959,323.957 451.663,336.665 447,348ZM394,347C393.019,347.538 387.782,361.199 387,362C384.859,354.275 392.818,339.805 394,347ZM387,336C387.076,328.306 392.522,313.406 393,300C398.532,276.163 388.399,299.406 386,308C374.355,327.475 387.451,318.887 390,304C393.594,313.31 377.626,326.143 387,336ZM374,321C381.103,304.8 371.708,275.91 382,266C372.107,274.644 374.424,301.683 374,321ZM425,313C429.244,304.388 430.415,290.971 434,283C427.712,289.568 427.777,304.221 425,313ZM332,303C339.277,296.064 340.468,281.401 343,271C338.982,281.194 334.689,292.756 332,303ZM656,290C654.595,275.675 651.957,255.999 645,246C648.761,257.969 651.398,277.646 656,290ZM364,278C373.209,273.21 375.958,261.957 382,254C373.3,259.299 367.751,267.752 364,278ZM614,267C616.073,284.386 609.314,265.847 611,258C605.228,246.616 615.782,258.207 614,267ZM429,236C443.21,234.642 449.485,223.791 458,218C465.129,214.757 488.895,199.03 467,208C454.501,211.068 438.934,212.628 432,220C419.023,224.648 414.986,224.301 429,236ZM571,236C568.473,227.23 561.879,220.052 579,232C598.846,242.191 592.712,226.604 576,227C567.71,222.435 556.39,214.347 548,215C558.493,219.172 565.515,226.82 571,236ZM480,222C487.597,216.062 496.226,209.471 505,206C493.64,208.174 484.942,214.697 480,222Z" fill="#000000"/>
</g>
</svg>
